<svg width="181" height="50" viewBox="0 0 181 50" fill="none" xmlns="http://www.w3.org/2000/svg">
<g id="Logo_Messe-Berlin">
<g id="Vector">
<path d="M165.061 21.1493V0.429204H179.706V4.69162H170.002V8.53963H178.143V12.4764H170.002V16.8425H179.825V21.1493H165.061Z" fill="white"/>
<path d="M153.327 21.5933C151.75 21.5933 150.217 21.3614 148.728 20.8977C147.24 20.4339 145.98 19.763 144.948 18.8849L147.27 15.2145C147.706 15.6782 148.262 16.0778 148.937 16.4133C149.611 16.7487 150.331 17.0102 151.095 17.1977C151.869 17.3753 152.618 17.4641 153.342 17.4641C154.364 17.4641 155.193 17.2963 155.828 16.9609C156.473 16.6155 156.795 16.1173 156.795 15.4661C156.795 14.9333 156.562 14.4843 156.096 14.1192C155.639 13.7542 154.781 13.4039 153.521 13.0684L151.735 12.5652C149.592 11.9732 148.049 11.1642 147.106 10.138C146.163 9.1119 145.692 7.87856 145.692 6.43802C145.692 5.51055 145.89 4.65708 146.287 3.87761C146.684 3.08828 147.24 2.40747 147.954 1.83521C148.669 1.25307 149.507 0.804136 150.47 0.488402C151.442 0.162801 152.499 0 153.64 0C155.218 0 156.681 0.231868 158.031 0.695602C159.39 1.14947 160.481 1.77107 161.305 2.56041L158.894 6.11242C158.517 5.71775 158.05 5.37242 157.495 5.07642C156.939 4.78042 156.334 4.54855 155.679 4.38081C155.024 4.21308 154.364 4.12921 153.699 4.12921C153.045 4.12921 152.474 4.21308 151.988 4.38081C151.502 4.54855 151.12 4.79028 150.842 5.10602C150.574 5.41188 150.44 5.77695 150.44 6.20122C150.44 6.54656 150.539 6.83762 150.738 7.07442C150.946 7.30136 151.288 7.51842 151.765 7.72563C152.251 7.93283 152.906 8.15976 153.729 8.40643L155.545 8.93923C157.678 9.56083 159.221 10.3403 160.174 11.2776C161.126 12.215 161.603 13.4335 161.603 14.9332C161.603 16.2455 161.265 17.4049 160.591 18.4113C159.916 19.4078 158.958 20.1873 157.718 20.7497C156.488 21.3121 155.024 21.5933 153.327 21.5933Z" fill="white"/>
<path d="M134.316 21.5933C132.738 21.5933 131.205 21.3614 129.717 20.8977C128.228 20.4339 126.968 19.763 125.936 18.8849L128.258 15.2145C128.695 15.6782 129.25 16.0778 129.925 16.4133C130.6 16.7487 131.319 17.0102 132.083 17.1977C132.857 17.3753 133.606 17.4641 134.331 17.4641C135.353 17.4641 136.181 17.2963 136.816 16.9609C137.461 16.6155 137.784 16.1173 137.784 15.4661C137.784 14.9333 137.551 14.4843 137.084 14.1192C136.628 13.7542 135.769 13.4039 134.509 13.0684L132.723 12.5652C130.58 11.9732 129.037 11.1642 128.095 10.138C127.152 9.1119 126.681 7.87856 126.681 6.43802C126.681 5.51055 126.879 4.65708 127.276 3.87761C127.673 3.08828 128.228 2.40747 128.943 1.83521C129.657 1.25307 130.496 0.804136 131.458 0.488402C132.431 0.162801 133.487 0 134.628 0C136.206 0 137.67 0.231868 139.019 0.695602C140.378 1.14947 141.47 1.77107 142.293 2.56041L139.882 6.11242C139.505 5.71775 139.039 5.37242 138.483 5.07642C137.928 4.78042 137.322 4.54855 136.667 4.38081C136.013 4.21308 135.353 4.12921 134.688 4.12921C134.033 4.12921 133.463 4.21308 132.976 4.38081C132.49 4.54855 132.108 4.79028 131.83 5.10602C131.562 5.41188 131.428 5.77695 131.428 6.20122C131.428 6.54656 131.528 6.83762 131.726 7.07442C131.934 7.30136 132.277 7.51842 132.753 7.72563C133.239 7.93283 133.894 8.15976 134.718 8.40643L136.534 8.93923C138.667 9.56083 140.21 10.3403 141.162 11.2776C142.115 12.215 142.591 13.4335 142.591 14.9332C142.591 16.2455 142.254 17.4049 141.579 18.4113C140.904 19.4078 139.947 20.1873 138.707 20.7497C137.476 21.3121 136.013 21.5933 134.316 21.5933Z" fill="white"/>
<path d="M108.143 21.1493V0.429204H122.788V4.69162H113.084V8.53963H121.225V12.4764H113.084V16.8425H122.907V21.1493H108.143Z" fill="white"/>
<path d="M80.2649 21.1493V0.429204H85.0128L91.9391 11.8026L98.4973 0.429204H103.23V21.1493H98.4378L98.5271 8.50875L93.3922 17.2421H90.1029L84.7002 8.40315L84.7895 21.1493H80.2649Z" fill="white"/>
<path d="M162.753 50V29.2799H167.634L176.207 41.9784V29.2799H181V50H176.118L167.53 37.124V50H162.753Z" fill="white"/>
<path d="M153.493 50V29.2799H158.435V50H153.493Z" fill="white"/>
<path d="M137.403 50V29.2799H142.344V45.5156H150.709V50H137.403Z" fill="white"/>
<path d="M117.562 50V29.2799H126.016C127.564 29.2799 128.914 29.5315 130.065 30.0347C131.225 30.5281 132.118 31.2483 132.744 32.1955C133.379 33.1427 133.696 34.2774 133.696 35.5996C133.696 36.6158 133.503 37.5137 133.116 38.2932C132.729 39.0628 132.198 39.7041 131.523 40.2172C130.848 40.7302 130.084 41.115 129.231 41.3716L134.842 50H128.978L124.334 42.378H122.504V50H117.562ZM122.504 38.4412H125.421C126.453 38.4412 127.256 38.2389 127.832 37.8344C128.417 37.4298 128.71 36.7885 128.71 35.9104C128.71 35.0224 128.432 34.3711 127.877 33.9567C127.331 33.5325 126.547 33.3203 125.525 33.3203H122.504V38.4412Z" fill="white"/>
<path d="M99.2624 50V29.2799H113.908V33.5423H104.204V37.3904H112.345V41.3272H104.204V45.6932H114.027V50H99.2624Z" fill="white"/>
<path d="M80.2649 50V29.2799H88.3318C90.4552 29.2799 92.1519 29.7239 93.422 30.6119C94.6921 31.4901 95.3271 32.7974 95.3271 34.534C95.3271 35.1654 95.1981 35.7476 94.9401 36.2804C94.6821 36.8132 94.3299 37.2868 93.8834 37.7012C93.4468 38.1057 92.9556 38.4313 92.4099 38.678C93.5311 39.0726 94.4341 39.7288 95.1187 40.6464C95.8133 41.564 96.1606 42.6542 96.1606 43.9172C96.1606 45.1505 95.848 46.2211 95.2229 47.1288C94.6077 48.0365 93.7296 48.742 92.5885 49.2452C91.4474 49.7484 90.093 50 88.5253 50H80.2649ZM85.2062 46.374H87.8109C88.8825 46.374 89.6862 46.1569 90.222 45.7228C90.7578 45.2887 91.0257 44.6375 91.0257 43.7692C91.0257 42.9404 90.7678 42.299 90.2518 41.8452C89.7457 41.3814 88.9867 41.1496 87.9746 41.1496H85.2062V46.374ZM85.2062 37.7752H87.662C88.2574 37.7752 88.7684 37.6765 89.195 37.4792C89.6316 37.2818 89.964 36.9957 90.1922 36.6208C90.4304 36.2458 90.5495 35.7969 90.5495 35.274C90.5495 34.5142 90.2915 33.9271 89.7755 33.5127C89.2695 33.0983 88.5402 32.8911 87.5876 32.8911H85.2062V37.7752Z" fill="white"/>
</g>
<g id="Vector_2">
<path d="M12.246 17.7772H18.4632V49.4381H12.246V17.7772Z" fill="white"/>
<path d="M36.738 17.7772H42.9552V49.4381H36.738V17.7772Z" fill="white"/>
<path d="M61.23 17.7772H67.4472V49.4381H61.23V17.7772Z" fill="white"/>
<path d="M0 17.7772H6.2172V49.4381H0V17.7772Z" fill="white"/>
<path d="M0 9.1595H67.4472V13.0937H0V9.1595Z" fill="white"/>
<path d="M0 0.541748H67.4472V4.47594H0V0.541748Z" fill="white"/>
<path d="M24.492 17.7772H30.7092V49.4381H24.492V17.7772Z" fill="white"/>
<path d="M48.984 17.7772H55.2012V49.4381H48.984V17.7772Z" fill="white"/>
</g>
</g>
</svg>
