<svg xmlns="http://www.w3.org/2000/svg" width="420" height="306" viewBox="0 0 420 306" fill="none">
    <path
        d="M392.177 305.219H28.0885C13.0885 305.219 0.869751 292.99 0.869751 277.984V28.0885C0.869751 13.0833 13.0885 0.854156 28.0885 0.854156H392.177C407.172 0.854156 419.391 13.0833 419.391 28.0885V277.984C419.391 292.99 407.172 305.219 392.177 305.219Z"
        fill="black"></path>
    <path
        d="M72.8595 200.469V200.782C76.8178 201.146 79.6407 202.5 81.3387 204.844C83.047 207.178 83.9012 210.563 83.9012 214.99C83.9012 220.339 82.5314 223.99 79.797 225.948C77.073 227.907 72.422 228.886 65.8387 228.886C55.948 228.886 48.4532 228.678 43.3595 228.261V174.99C47.9428 174.573 54.6095 174.365 63.3595 174.365C70.4689 174.365 75.3855 175.334 78.1095 177.261C80.8439 179.193 82.2137 182.86 82.2137 188.261C82.2137 192.125 81.4741 195.047 80.0053 197.032C78.5314 199.021 76.1512 200.167 72.8595 200.469ZM54.8803 196.761H63.4428C66.3282 196.761 68.297 196.303 69.3387 195.386C70.3907 194.459 70.922 192.625 70.922 189.886C70.922 187.209 70.3491 185.428 69.2137 184.553C68.0887 183.678 65.9532 183.24 62.8178 183.24L54.8803 183.178V196.761ZM54.8803 219.99H63.8387C67.073 219.99 69.2553 219.521 70.3803 218.573C71.5157 217.615 72.0887 215.672 72.0887 212.74C72.0887 209.547 71.4949 207.402 70.3178 206.303C69.1355 205.193 66.8699 204.61 63.5262 204.553H54.8803V219.99Z"
        fill="white"></path>
    <path
        d="M127.966 219.073L128.508 227.719C123.675 228.235 115.435 228.49 103.8 228.49C100.258 228.49 97.4299 227.527 95.3206 225.594C93.206 223.667 92.1226 221.053 92.0706 217.761V185.49C92.1226 182.198 93.206 179.589 95.3206 177.657C97.4299 175.73 100.258 174.761 103.8 174.761C115.435 174.761 123.675 175.021 128.508 175.532L127.966 184.261H107.508C106.227 184.261 105.305 184.573 104.737 185.198C104.164 185.813 103.883 186.813 103.883 188.198V196.303H125.112V204.782H103.883V215.053C103.883 216.5 104.164 217.532 104.737 218.157C105.305 218.771 106.227 219.073 107.508 219.073H127.966Z"
        fill="white"></path>
    <path
        d="M156.677 208.115L145.948 204.323C141.99 202.881 139.156 200.928 137.448 198.469C135.75 196 134.906 192.756 134.906 188.74C134.906 182.865 136.334 178.943 139.198 176.969C142.058 174.985 147.094 173.99 154.302 173.99C161.094 173.99 166.933 174.688 171.823 176.073L171.052 184.094C166.563 183.943 161 183.865 154.365 183.865C151.281 183.865 149.224 184.136 148.198 184.678C147.167 185.219 146.656 186.573 146.656 188.74C146.656 190.49 147.037 191.756 147.802 192.532C148.578 193.297 150.052 194.042 152.219 194.761L162.323 198.219C166.433 199.667 169.334 201.636 171.031 204.136C172.74 206.636 173.594 209.896 173.594 213.907C173.594 219.881 172.146 223.938 169.261 226.073C166.386 228.198 161.24 229.261 153.823 229.261C147.808 229.261 141.709 228.594 135.531 227.261L136.219 218.761C147.188 219.027 153.058 219.157 153.823 219.157C156.959 219.157 159.058 218.823 160.115 218.157C161.167 217.48 161.698 216.084 161.698 213.969C161.698 212.178 161.334 210.907 160.615 210.157C159.906 209.407 158.594 208.73 156.677 208.115Z"
        fill="white"></path>
    <path d="M221.539 184.553H205.622V228.261H193.81V184.553H177.914V174.99H221.539V184.553Z"
        fill="white"></path>
    <path
        d="M271.096 174.99H282.429C285.263 174.99 286.732 176.459 286.846 179.386L288.929 228.261H277.804L276.034 184.178H274.721L266.679 217.136C266.164 219.667 264.575 220.928 261.909 220.928H254.179C251.497 220.928 249.898 219.667 249.388 217.136L241.284 184.178H239.971L238.429 228.261H227.304L229.242 179.386C229.393 176.459 230.857 174.99 233.638 174.99H244.992C247.518 174.99 249.06 176.25 249.617 178.761L256.117 205.323C256.518 207.032 256.976 209.532 257.492 212.823H258.492C258.544 212.563 258.742 211.506 259.075 209.657C259.409 207.797 259.679 206.355 259.888 205.323L266.304 178.761C266.914 176.25 268.513 174.99 271.096 174.99Z"
        fill="white"></path>
    <path
        d="M334.061 219.073L334.603 227.719C329.769 228.235 321.53 228.49 309.894 228.49C306.353 228.49 303.525 227.527 301.415 225.594C299.301 223.667 298.217 221.053 298.165 217.761V185.49C298.217 182.198 299.301 179.589 301.415 177.657C303.525 175.73 306.353 174.761 309.894 174.761C321.53 174.761 329.769 175.021 334.603 175.532L334.061 184.261H313.603C312.322 184.261 311.4 184.573 310.832 185.198C310.259 185.813 309.978 186.813 309.978 188.198V196.303H331.207V204.782H309.978V215.053C309.978 216.5 310.259 217.532 310.832 218.157C311.4 218.771 312.322 219.073 313.603 219.073H334.061Z"
        fill="white"></path>
    <path
        d="M343.084 228.261V174.99C350.402 174.532 357.303 174.303 363.793 174.303C372.277 174.303 378.178 176.261 381.501 180.178C384.819 184.084 386.48 191.235 386.48 201.636C386.48 212.027 384.819 219.178 381.501 223.094C378.178 227 372.277 228.948 363.793 228.948C357.303 228.948 350.402 228.719 343.084 228.261ZM354.834 183.553V219.615C355.709 219.615 357.131 219.631 359.105 219.657C361.09 219.688 362.652 219.698 363.793 219.698C367.751 219.698 370.459 218.438 371.918 215.907C373.387 213.381 374.126 208.615 374.126 201.615C374.126 194.615 373.387 189.844 371.918 187.303C370.459 184.761 367.751 183.49 363.793 183.49L354.834 183.553Z"
        fill="white"></path>
    <mask id="mask0_204_66" style="mask-type:luminance" maskUnits="userSpaceOnUse" x="152" y="35"
        width="154" height="124">
        <path d="M152 35H305.333V159H152V35Z" fill="white"></path>
    </mask>
    <g mask="url(#mask0_204_66)">
        <mask id="mask1_204_66" style="mask-type:luminance" maskUnits="userSpaceOnUse" x="132" y="0"
            width="193" height="193">
            <path
                d="M147.245 0.848969L324.583 15.2813L310.146 192.625L132.807 178.188L147.245 0.848969Z"
                fill="white"></path>
        </mask>
        <g mask="url(#mask1_204_66)">
            <mask id="mask2_204_66" style="mask-type:luminance" maskUnits="userSpaceOnUse" x="132"
                y="0" width="193" height="193">
                <path
                    d="M147.245 0.848969L324.583 15.2813L310.146 192.625L132.807 178.188L147.245 0.848969Z"
                    fill="white"></path>
            </mask>
            <g mask="url(#mask2_204_66)">
                <path
                    d="M174.927 94.4584C194.484 70.8542 282.563 72.1459 303.141 36.0261C316.318 90.849 215.104 104.479 215.104 104.479C215.104 104.479 277.719 98.4584 298.568 75.3073C300.432 116.656 222.891 129.307 222.891 129.307C222.891 129.307 244.161 131.172 274.724 116.859C250.641 164.984 152.172 157.276 152.172 157.276C152.172 157.276 163.37 108.406 174.922 94.4584"
                    fill="#0F97AB"></path>
            </g>
        </g>
    </g>
    <path
        d="M339.462 129.547L339.275 127.672C341.134 127.338 342.91 127.172 344.608 127.172C346.733 127.172 348.238 127.5 349.129 128.151C350.014 128.791 350.462 129.937 350.462 131.588C350.462 134.411 349.535 136.005 347.691 136.38V136.484C348.858 136.682 349.691 137.172 350.191 137.963C350.691 138.755 350.952 139.849 350.983 141.234C351.025 143.208 350.577 144.646 349.65 145.547C348.733 146.437 347.17 146.88 344.962 146.88C343.254 146.88 341.243 146.713 338.941 146.38L339.108 144.442C341.176 144.625 342.926 144.713 344.358 144.713C345.9 144.713 346.988 144.442 347.629 143.901C348.264 143.349 348.587 142.375 348.587 140.984C348.587 139.833 348.321 138.963 347.795 138.38C347.28 137.797 346.285 137.505 344.816 137.505H341.295V135.609H344.816C346.176 135.583 347.071 135.271 347.504 134.672C347.931 134.062 348.15 133.213 348.15 132.13C348.134 130.979 347.858 130.224 347.316 129.859C346.785 129.5 345.775 129.317 344.275 129.317C342.743 129.317 341.139 129.396 339.462 129.547Z"
        fill="white"></path>
    <path
        d="M365.828 127.609L365.599 129.38C364.792 129.312 363.589 129.276 361.995 129.276C361.063 129.276 360.313 129.359 359.745 129.526C359.188 129.692 358.693 130.021 358.266 130.505C357.849 130.994 357.547 131.682 357.37 132.567C357.188 133.458 357.078 134.646 357.037 136.13C357.703 135.396 358.396 134.88 359.12 134.588C359.839 134.297 360.745 134.151 361.828 134.151C363.813 134.151 365.172 134.609 365.912 135.526C366.662 136.442 367.037 138.062 367.037 140.38C367.037 141.453 366.959 142.349 366.808 143.067C366.667 143.791 366.391 144.458 365.974 145.067C365.558 145.682 364.938 146.13 364.12 146.422C363.313 146.713 362.287 146.859 361.037 146.859C359.938 146.859 359.021 146.755 358.287 146.547C357.563 146.354 356.953 146.057 356.453 145.651C355.964 145.25 355.589 144.666 355.328 143.901C355.063 143.125 354.875 142.244 354.766 141.255C354.667 140.255 354.62 139.005 354.62 137.505C354.62 135.729 354.714 134.229 354.912 133.005C355.12 131.786 355.401 130.791 355.766 130.026C356.125 129.265 356.62 128.682 357.245 128.276C357.881 127.859 358.563 127.583 359.287 127.442C360.006 127.291 360.912 127.213 361.995 127.213C363.521 127.213 364.797 127.349 365.828 127.609ZM361.058 144.797C362.584 144.797 363.578 144.458 364.037 143.776C364.495 143.099 364.724 141.963 364.724 140.38C364.724 138.786 364.479 137.672 363.995 137.047C363.506 136.411 362.578 136.088 361.203 136.088C360.412 136.088 359.709 136.213 359.099 136.463C358.485 136.713 357.792 137.182 357.016 137.859C357.016 139.026 357.037 139.953 357.078 140.63C357.131 141.312 357.229 141.958 357.37 142.567C357.521 143.166 357.745 143.609 358.037 143.901C358.339 144.182 358.729 144.401 359.203 144.567C359.688 144.724 360.308 144.797 361.058 144.797Z"
        fill="white"></path>
    <path
        d="M371.781 129.463C372.75 127.937 374.437 127.172 376.844 127.172C379.245 127.172 380.932 127.937 381.906 129.463C382.89 130.994 383.385 133.521 383.385 137.047C383.385 140.562 382.89 143.083 381.906 144.609C380.932 146.125 379.245 146.88 376.844 146.88C374.437 146.88 372.75 146.125 371.781 144.609C370.807 143.083 370.323 140.562 370.323 137.047C370.323 133.521 370.807 130.994 371.781 129.463ZM380.094 131.047C379.479 129.88 378.39 129.297 376.823 129.297C375.265 129.297 374.182 129.88 373.573 131.047C372.974 132.203 372.677 134.203 372.677 137.047C372.677 139.88 372.974 141.875 373.573 143.026C374.182 144.182 375.265 144.755 376.823 144.755C378.39 144.755 379.479 144.182 380.094 143.026C380.703 141.875 381.01 139.88 381.01 137.047C381.01 134.203 380.703 132.203 380.094 131.047Z"
        fill="white"></path>
</svg>