<svg xmlns="http://www.w3.org/2000/svg" width="87" height="58" viewBox="0 0 87 58" fill="none">
    <path fill-rule="evenodd" clip-rule="evenodd"
        d="M63 11H41L16 35L30 58H38.808L47.88 20H60.984L63 11ZM41 12H61.5L60 19H47L38 57H30.5L41 12Z"
        fill="#004F9F"></path>
    <path d="M11.592 11H30L5.72769 34.777L11.592 11Z" fill="#004F9F"></path>
    <path d="M0 58L5.62642 35.1876L21 58H0Z" fill="#004F9F"></path>
    <circle cx="47" cy="5" r="5" fill="#DC092F"></circle>
    <path
        d="M67.8588 20L65.6102 15.2429L69.2674 11H71.2704L66.896 15.7893L67.0769 14.5743L69.6551 20H67.8588ZM62.8456 20L64.8456 11H66.4998L64.4998 20H62.8456Z"
        fill="#004F9F"></path>
    <path d="M70.3199 20L70.63 18.2514H72.31L71.9999 20H70.3199Z" fill="#004F9F"></path>
    <path d="M73.4239 20L75.0134 11H76.6676L75.0781 20H73.4239Z" fill="#004F9F"></path>
    <path d="M76.5668 20L76.877 18.2514H78.5569L78.2468 20H76.5668Z" fill="#004F9F"></path>
    <path
        d="M80.7863 20L82.1302 12.3629H83.7844L82.4404 20H80.7863ZM79.649 12.5943L79.9333 11H86.4723L86.188 12.5943H79.649Z"
        fill="#004F9F"></path>
    <path d="M85.0096 20L85.3198 18.2514H86.9998L86.6896 20H85.0096Z" fill="#004F9F"></path>
</svg>