<svg version="1.1" id="Layer_1" xmlns="http://www.w3.org/2000/svg"
    xmlns:xlink="http://www.w3.org/1999/xlink" x="0px" y="0px"
    width="100%" viewBox="0 0 204 190" enable-background="new 0 0 204 190" xml:space="preserve">
<path fill="#FDFEFE" opacity="1.000000" stroke="none" 
	d="
M1.000000,74.000000 
	C1.000000,49.333340 1.000000,25.166677 1.000000,1.000013 
	C68.999977,1.000009 136.999954,1.000009 204.999954,1.000004 
	C204.999969,64.333298 204.999969,127.666595 204.999985,190.999908 
	C137.000046,190.999939 69.000107,190.999939 1.000080,190.999969 
	C1.000000,152.166672 1.000000,113.333336 1.000000,74.000000 
M197.042542,113.500000 
	C197.042542,78.438805 197.042542,43.377605 197.042542,8.422152 
	C133.921982,8.422152 71.545479,8.422152 9.184584,8.422152 
	C9.184584,66.646729 9.184584,124.536621 9.184584,182.594986 
	C71.847664,182.594986 134.219635,182.594986 197.042542,182.594986 
	C197.042542,159.724762 197.042542,137.112381 197.042542,113.500000 
z"/>
<path fill="#135696" opacity="1.000000" stroke="none" 
	d="
M197.042542,114.000000 
	C197.042542,137.112381 197.042542,159.724762 197.042542,182.594986 
	C134.219635,182.594986 71.847664,182.594986 9.184584,182.594986 
	C9.184584,124.536621 9.184584,66.646729 9.184584,8.422152 
	C71.545479,8.422152 133.921982,8.422152 197.042542,8.422152 
	C197.042542,43.377605 197.042542,78.438805 197.042542,114.000000 
M96.131157,43.186302 
	C96.025154,42.791462 95.919151,42.396618 95.945808,41.283733 
	C95.358032,39.730091 94.770256,38.176449 94.129654,35.887657 
	C90.923317,28.762239 90.668686,20.066730 84.160805,14.697495 
	C83.638092,14.893612 83.115379,15.089728 82.592667,15.285844 
	C82.892235,18.381012 83.191811,21.476177 83.049767,24.946918 
	C82.903992,25.073769 82.758209,25.200619 82.017479,24.980848 
	C80.005257,23.844383 77.993034,22.707916 75.980812,21.571449 
	C75.690651,22.007757 75.400490,22.444065 75.110321,22.880373 
	C77.326424,26.341507 79.027046,30.324497 81.879181,33.141720 
	C86.179977,37.389885 91.285011,40.823841 96.411308,45.199795 
	C97.400841,46.475365 98.390366,47.750938 98.935539,49.564915 
	C101.404007,55.833138 103.577240,62.241856 106.465149,68.310478 
	C107.915512,71.358261 110.665817,73.787437 112.828255,76.496368 
	C113.475540,76.107903 114.122826,75.719444 114.770103,75.330986 
	C113.542984,72.281143 112.315857,69.231293 111.539070,65.965210 
	C111.539070,65.965210 111.999413,65.771164 112.528931,66.227074 
	C115.749451,68.277481 118.969971,70.327881 122.778130,72.752411 
	C122.679321,66.600456 113.970154,57.782867 107.996323,56.569244 
	C107.996323,56.569244 108.041557,56.500813 108.599609,55.922417 
	C107.412643,55.117535 106.225677,54.312653 104.971199,53.528988 
	C104.971199,53.528988 105.022430,53.468815 105.183716,52.809124 
	C103.636124,51.552189 102.088539,50.295250 100.519295,48.222309 
	C101.015320,47.511299 101.421219,46.710167 102.024734,46.106655 
	C103.653343,44.478069 105.366104,42.933647 107.045479,41.355831 
	C106.589401,40.805511 106.133324,40.255196 105.677238,39.704880 
	C103.372948,41.022152 101.110168,42.422474 98.739647,43.607220 
	C98.007462,43.973148 96.981796,43.751858 96.131157,43.186302 
M159.084229,127.550247 
	C154.494232,132.645355 149.904236,137.740479 145.314240,142.835587 
	C144.323853,139.570404 144.282608,137.103989 144.330154,134.639282 
	C144.911880,104.484993 145.526733,74.331329 146.081497,44.176559 
	C146.196274,37.938602 143.045639,34.582462 136.829453,34.333149 
	C137.223099,42.990482 137.906097,51.621414 137.956009,60.256001 
	C138.137115,91.582779 138.105865,122.910797 138.155167,154.238342 
	C138.158829,156.571182 138.067337,158.909439 138.195206,161.235565 
	C138.381653,164.626724 139.936508,166.812485 144.195831,166.987549 
	C144.195831,163.343658 144.710907,159.795929 144.094803,156.456924 
	C142.534515,148.001129 147.461334,144.204163 154.023758,141.161194 
	C161.454773,150.750473 168.700577,160.294220 176.202744,169.632019 
	C177.867416,171.704010 180.436478,173.049423 182.589127,174.729370 
	C184.356781,172.215195 186.236145,169.768860 187.827621,167.147720 
	C188.340240,166.303467 188.094788,164.998947 188.100769,164.934402 
	C175.274094,156.787308 170.160812,143.447464 161.672104,133.823547 
	C167.755585,126.224213 173.507095,119.538742 178.669876,112.425949 
	C182.518494,107.123726 181.668961,101.279976 179.011230,95.027298 
	C172.267136,106.095032 165.899017,116.545753 159.084229,127.550247 
M55.301174,160.206741 
	C57.675800,163.212921 59.878036,166.379776 62.481441,169.172699 
	C64.444412,171.278564 66.921028,172.905640 69.169022,174.745834 
	C71.010262,172.099197 72.933105,169.503479 74.637917,166.771683 
	C75.089302,166.048386 74.869438,164.906189 74.873428,164.863281 
	C61.980404,156.989594 56.920216,143.528748 47.093761,132.461060 
	C49.022179,131.075912 50.806068,130.250519 51.955399,128.889328 
	C56.669704,123.305908 61.562008,117.812813 65.670334,111.795906 
	C69.225533,106.589096 68.591827,100.304459 64.779053,95.184601 
	C55.790295,112.599586 47.063900,129.930389 31.082987,142.819458 
	C31.082987,136.937790 30.991264,131.801392 31.098289,126.669128 
	C31.671501,99.181290 32.320240,71.695023 32.879772,44.206928 
	C33.003750,38.116467 29.794420,34.719067 23.426041,34.242252 
	C23.614506,37.562618 23.935444,40.843628 23.966528,44.127380 
	C24.322941,81.779655 24.635557,119.432350 24.958397,157.084946 
	C24.971254,158.584579 24.880701,160.091064 24.992853,161.582733 
	C25.252707,165.038849 26.899172,167.034424 30.979370,166.803726 
	C30.979370,161.310654 30.821152,155.985245 31.077724,150.679886 
	C31.152739,149.128769 32.060310,147.264969 33.197811,146.194092 
	C35.345966,144.171738 37.937656,142.620544 40.537304,140.734009 
	C45.434700,147.182953 50.160900,153.406479 55.301174,160.206741 
M121.737068,111.913330 
	C120.545258,108.404343 120.735237,103.732597 116.080734,102.738571 
	C111.124863,101.680191 108.143372,105.355995 105.345085,108.677292 
	C103.745888,110.575386 102.180145,112.617325 101.135529,114.845833 
	C97.684685,122.207611 94.474541,129.682281 91.180382,137.117355 
	C90.574181,138.485580 90.007164,139.871185 89.422066,141.248764 
	C88.254967,139.695114 87.969246,138.446487 88.065010,137.227844 
	C88.832787,127.457664 89.709679,117.696053 90.475861,107.925758 
	C90.905380,102.448654 88.247269,99.660980 82.281082,99.313980 
	C82.522217,103.963058 83.020065,108.597168 82.954330,113.223267 
	C82.755661,127.204620 82.384850,141.184219 81.975914,155.161423 
	C81.862610,159.034363 83.002731,161.574875 87.556358,161.880814 
	C88.083397,159.663651 88.575768,157.579788 89.074249,155.497391 
	C92.218147,142.363785 95.950150,129.414001 103.334282,117.942627 
	C104.770935,115.710777 107.746239,114.469353 110.011826,112.771088 
	C111.409286,115.052673 113.603142,117.184441 114.065445,119.641945 
	C116.000977,129.930893 117.406059,140.319275 119.028442,150.667618 
	C119.889351,156.158920 120.797241,161.642868 121.683929,167.130127 
	C122.276817,167.340103 122.869713,167.550079 123.462608,167.760040 
	C126.099556,165.323303 128.736511,162.886551 130.678909,161.091599 
	C129.208710,157.208694 127.672935,154.586639 127.252220,151.796463 
	C125.293045,138.803314 123.642227,125.763664 121.737068,111.913330 
z"/>
<path fill="#F6F8FB" opacity="1.000000" stroke="none" 
	d="
M159.307556,127.273361 
	C165.899017,116.545753 172.267136,106.095032 179.011230,95.027298 
	C181.668961,101.279976 182.518494,107.123726 178.669876,112.425949 
	C173.507095,119.538742 167.755585,126.224213 161.672104,133.823547 
	C170.160812,143.447464 175.274094,156.787308 188.100769,164.934402 
	C188.094788,164.998947 188.340240,166.303467 187.827621,167.147720 
	C186.236145,169.768860 184.356781,172.215195 182.589127,174.729370 
	C180.436478,173.049423 177.867416,171.704010 176.202744,169.632019 
	C168.700577,160.294220 161.454773,150.750473 154.023758,141.161194 
	C147.461334,144.204163 142.534515,148.001129 144.094803,156.456924 
	C144.710907,159.795929 144.195831,163.343658 144.195831,166.987549 
	C139.936508,166.812485 138.381653,164.626724 138.195206,161.235565 
	C138.067337,158.909439 138.158829,156.571182 138.155167,154.238342 
	C138.105865,122.910797 138.137115,91.582779 137.956009,60.256001 
	C137.906097,51.621414 137.223099,42.990482 136.829453,34.333149 
	C143.045639,34.582462 146.196274,37.938602 146.081497,44.176559 
	C145.526733,74.331329 144.911880,104.484993 144.330154,134.639282 
	C144.282608,137.103989 144.323853,139.570404 145.314240,142.835587 
	C149.904236,137.740479 154.494232,132.645355 159.307556,127.273361 
z"/>
<path fill="#F9FAFC" opacity="1.000000" stroke="none" 
	d="
M55.094135,159.918365 
	C50.160900,153.406479 45.434700,147.182953 40.537304,140.734009 
	C37.937656,142.620544 35.345966,144.171738 33.197811,146.194092 
	C32.060310,147.264969 31.152739,149.128769 31.077724,150.679886 
	C30.821152,155.985245 30.979370,161.310654 30.979370,166.803726 
	C26.899172,167.034424 25.252707,165.038849 24.992853,161.582733 
	C24.880701,160.091064 24.971254,158.584579 24.958397,157.084946 
	C24.635557,119.432350 24.322941,81.779655 23.966528,44.127380 
	C23.935444,40.843628 23.614506,37.562618 23.426041,34.242252 
	C29.794420,34.719067 33.003750,38.116467 32.879772,44.206928 
	C32.320240,71.695023 31.671501,99.181290 31.098289,126.669128 
	C30.991264,131.801392 31.082987,136.937790 31.082987,142.819458 
	C47.063900,129.930389 55.790295,112.599586 64.779053,95.184601 
	C68.591827,100.304459 69.225533,106.589096 65.670334,111.795906 
	C61.562008,117.812813 56.669704,123.305908 51.955399,128.889328 
	C50.806068,130.250519 49.022179,131.075912 47.093761,132.461060 
	C56.920216,143.528748 61.980404,156.989594 74.873428,164.863281 
	C74.869438,164.906189 75.089302,166.048386 74.637917,166.771683 
	C72.933105,169.503479 71.010262,172.099197 69.169022,174.745834 
	C66.921028,172.905640 64.444412,171.278564 62.481441,169.172699 
	C59.878036,166.379776 57.675800,163.212921 55.094135,159.918365 
z"/>
<path fill="#F5F8FB" opacity="1.000000" stroke="none" 
	d="
M121.809082,112.326996 
	C123.642227,125.763664 125.293045,138.803314 127.252220,151.796463 
	C127.672935,154.586639 129.208710,157.208694 130.678909,161.091599 
	C128.736511,162.886551 126.099556,165.323303 123.462608,167.760040 
	C122.869713,167.550079 122.276817,167.340103 121.683929,167.130127 
	C120.797241,161.642868 119.889351,156.158920 119.028442,150.667618 
	C117.406059,140.319275 116.000977,129.930893 114.065445,119.641945 
	C113.603142,117.184441 111.409286,115.052673 110.011826,112.771088 
	C107.746239,114.469353 104.770935,115.710777 103.334282,117.942627 
	C95.950150,129.414001 92.218147,142.363785 89.074249,155.497391 
	C88.575768,157.579788 88.083397,159.663651 87.556358,161.880814 
	C83.002731,161.574875 81.862610,159.034363 81.975914,155.161423 
	C82.384850,141.184219 82.755661,127.204620 82.954330,113.223267 
	C83.020065,108.597168 82.522217,103.963058 82.281082,99.313980 
	C88.247269,99.660980 90.905380,102.448654 90.475861,107.925758 
	C89.709679,117.696053 88.832787,127.457664 88.065010,137.227844 
	C87.969246,138.446487 88.254967,139.695114 89.422066,141.248764 
	C90.007164,139.871185 90.574181,138.485580 91.180382,137.117355 
	C94.474541,129.682281 97.684685,122.207611 101.135529,114.845833 
	C102.180145,112.617325 103.745888,110.575386 105.345085,108.677292 
	C108.143372,105.355995 111.124863,101.680191 116.080734,102.738571 
	C120.735237,103.732597 120.545258,108.404343 121.809082,112.326996 
z"/>
<path fill="#E17019" opacity="1.000000" stroke="none" 
	d="
M108.075409,56.553551 
	C113.970154,57.782867 122.679321,66.600456 122.778130,72.752411 
	C118.969971,70.327881 115.749451,68.277481 112.228981,65.737640 
	C111.647461,64.945274 111.365891,64.642334 111.084320,64.339401 
	C111.085793,64.953415 111.087257,65.567436 111.088730,66.181450 
	C112.315857,69.231293 113.542984,72.281143 114.770103,75.330986 
	C114.122826,75.719444 113.475540,76.107903 112.828255,76.496368 
	C110.665817,73.787437 107.915512,71.358261 106.465149,68.310478 
	C103.577240,62.241856 101.404007,55.833138 99.351135,49.304733 
	C99.766724,49.044548 100.153900,49.049309 100.153900,49.049309 
	C100.153900,49.049309 100.540947,49.038311 100.540947,49.038311 
	C102.088539,50.295250 103.636124,51.552189 104.934311,53.371849 
	C104.561798,54.219471 104.438690,54.504372 104.315582,54.789268 
	C104.503357,54.829739 104.691139,54.870205 104.878914,54.910675 
	C104.932182,54.443039 104.985443,53.975403 105.038712,53.507767 
	C106.225677,54.312653 107.412643,55.117535 108.113029,56.433117 
	C107.357140,57.435078 107.087837,57.926338 106.818527,58.417599 
	C107.063545,58.503330 107.308563,58.589062 107.553581,58.674793 
	C107.727524,57.967712 107.901466,57.260632 108.075409,56.553551 
M108.411476,61.482742 
	C108.411476,61.482742 108.523575,61.415771 108.411476,61.482742 
M110.516884,62.410423 
	C110.516884,62.410423 110.584686,62.523239 110.516884,62.410423 
z"/>
<path fill="#E27019" opacity="1.000000" stroke="none" 
	d="
M83.491379,24.571344 
	C83.191811,21.476177 82.892235,18.381012 82.592667,15.285844 
	C83.115379,15.089728 83.638092,14.893612 84.160805,14.697495 
	C90.668686,20.066730 90.923317,28.762239 94.016327,36.586193 
	C94.539711,38.857079 95.176430,40.429428 95.813156,42.001774 
	C95.919151,42.396618 96.025154,42.791462 96.078125,43.693130 
	C96.025085,44.199963 96.048210,44.603874 96.048210,44.603874 
	C91.285011,40.823841 86.179977,37.389885 81.879181,33.141720 
	C79.027046,30.324497 77.326424,26.341507 75.110321,22.880373 
	C75.400490,22.444065 75.690651,22.007757 75.980812,21.571449 
	C77.993034,22.707916 80.005257,23.844383 82.412140,25.436592 
	C83.104836,26.127731 83.402885,26.363123 83.700928,26.598515 
	C83.631081,25.922791 83.561234,25.247068 83.491379,24.571344 
M86.084122,29.674206 
	C86.462234,30.260767 86.840347,30.847328 87.218460,31.433889 
	C87.527275,31.143080 87.836098,30.852270 88.144920,30.561460 
	C87.481873,30.074009 86.818832,29.586557 86.084122,29.674206 
M90.161011,34.950329 
	C90.413742,34.799652 90.795250,34.698387 90.878082,34.482529 
	C90.943283,34.312572 90.640228,34.001328 90.500748,33.752838 
	C90.360809,34.001617 90.220871,34.250401 90.161011,34.950329 
z"/>
<path fill="#D56E21" opacity="1.000000" stroke="none" 
	d="
M96.229759,44.901833 
	C96.048210,44.603874 96.025085,44.199963 96.057800,43.999699 
	C96.981796,43.751858 98.007462,43.973148 98.739647,43.607220 
	C101.110168,42.422474 103.372948,41.022152 105.677238,39.704880 
	C106.133324,40.255196 106.589401,40.805511 107.045479,41.355831 
	C105.366104,42.933647 103.653343,44.478069 102.024734,46.106655 
	C101.421219,46.710167 101.015320,47.511299 100.530121,48.630310 
	C100.540947,49.038311 100.153900,49.049309 100.153900,49.049309 
	C100.153900,49.049309 99.766724,49.044548 99.573311,49.035530 
	C98.390366,47.750938 97.400841,46.475365 96.229759,44.901833 
z"/>
<path fill="#DE701B" opacity="1.000000" stroke="none" 
	d="
M95.879486,41.642754 
	C95.176430,40.429428 94.539711,38.857079 94.042740,36.953766 
	C94.770256,38.176449 95.358032,39.730091 95.879486,41.642754 
z"/>
<path fill="#DD6F1C" opacity="1.000000" stroke="none" 
	d="
M111.313904,66.073334 
	C111.087257,65.567436 111.085793,64.953415 111.084320,64.339401 
	C111.365891,64.642334 111.647461,64.945274 111.964218,65.509689 
	C111.999413,65.771164 111.539070,65.965210 111.313904,66.073334 
z"/>
<path fill="#DD6F1C" opacity="1.000000" stroke="none" 
	d="
M108.035866,56.561398 
	C107.901466,57.260632 107.727524,57.967712 107.553581,58.674793 
	C107.308563,58.589062 107.063545,58.503330 106.818527,58.417599 
	C107.087837,57.926338 107.357140,57.435078 107.834000,56.722313 
	C108.041557,56.500813 107.996323,56.569244 108.035866,56.561398 
z"/>
<path fill="#DD6F1C" opacity="1.000000" stroke="none" 
	d="
M105.004959,53.518379 
	C104.985443,53.975403 104.932182,54.443039 104.878914,54.910675 
	C104.691139,54.870205 104.503357,54.829739 104.315582,54.789268 
	C104.438690,54.504372 104.561798,54.219471 104.853668,53.701694 
	C105.022430,53.468815 104.971199,53.528988 105.004959,53.518379 
z"/>
<path fill="#DD6F1C" opacity="1.000000" stroke="none" 
	d="
M108.467529,61.449257 
	C108.523575,61.415771 108.411476,61.482742 108.467529,61.449257 
z"/>
<path fill="#DD6F1C" opacity="1.000000" stroke="none" 
	d="
M110.550781,62.466831 
	C110.584686,62.523239 110.516884,62.410423 110.550781,62.466831 
z"/>
<path fill="#DE701B" opacity="1.000000" stroke="none" 
	d="
M86.119957,29.386654 
	C86.818832,29.586557 87.481873,30.074009 88.144920,30.561460 
	C87.836098,30.852270 87.527275,31.143080 87.218460,31.433889 
	C86.840347,30.847328 86.462234,30.260767 86.119957,29.386654 
z"/>
<path fill="#DE701B" opacity="1.000000" stroke="none" 
	d="
M90.120972,34.724754 
	C90.220871,34.250401 90.360809,34.001617 90.500748,33.752838 
	C90.640228,34.001328 90.943283,34.312572 90.878082,34.482529 
	C90.795250,34.698387 90.413742,34.799652 90.120972,34.724754 
z"/>
<path fill="#135696" opacity="1.000000" stroke="none" 
	d="
M83.270576,24.759132 
	C83.561234,25.247068 83.631081,25.922791 83.700928,26.598515 
	C83.402885,26.363123 83.104836,26.127731 82.709610,25.609901 
	C82.758209,25.200619 82.903992,25.073769 83.270576,24.759132 
z"/>
</svg>