<svg xmlns="http://www.w3.org/2000/svg" xmlns:xlink="http://www.w3.org/1999/xlink"
    xml:space="preserve" id="Ebene_1" x="0" y="0" style="enable-background:new 0 0 546.6 546.8"
    version="1.1" viewBox="0 0 546.6 546.8">
  <style>
    .st1{fill:#fff}
  </style>
  <path d="M0 0h546.6v546.8H0z" style="fill:#121223"/>
  <defs>
    <path id="SVGID_1_" d="M242.9 351c-7.8 40.9 7.4 67.7 36.3 92.4L129.4 546.8h129l82.9-59.3 83 59.3h122.4L344 400.5c-19-14.8-28.7-24.7-28-37.7 1.8-37 72.2-42 72.1 4v8.2h71.5c-.5-71.3-54.7-106-109-106-48.6 0-97.3 27.8-107.7 82"/>
  </defs>
  <linearGradient id="SVGID_2_" x1="129.35" x2="546.58" y1="407.92" y2="407.92" gradientUnits="userSpaceOnUse">
    <stop offset="0" style="stop-color:#daaa11"/>
    <stop offset=".05" style="stop-color:#e0b934"/>
    <stop offset=".11" style="stop-color:#e6c85b"/>
    <stop offset=".17" style="stop-color:#ecd581"/>
    <stop offset=".23" style="stop-color:#f1e1a3"/>
    <stop offset=".3" style="stop-color:#f5eac0"/>
    <stop offset=".38" style="stop-color:#f9f2d8"/>
    <stop offset=".46" style="stop-color:#fbf7e9"/>
    <stop offset=".56" style="stop-color:#fdfaf3"/>
    <stop offset=".72" style="stop-color:#fdfbf6"/>
    <stop offset=".75" style="stop-color:#f6e8ca"/>
    <stop offset=".78" style="stop-color:#eccf93"/>
    <stop offset=".81" style="stop-color:#e4ba69"/>
    <stop offset=".85" style="stop-color:#dfa949"/>
    <stop offset=".89" style="stop-color:#da9c33"/>
    <stop offset=".92" style="stop-color:#d79324"/>
    <stop offset=".96" style="stop-color:#d58e1b"/>
    <stop offset="1" style="stop-color:#d48c18"/>
  </linearGradient>
  <use xlink:href="#SVGID_1_" style="overflow:visible;fill:url(#SVGID_2_)"/>
  <clipPath id="SVGID_3_">
    <use xlink:href="#SVGID_1_" style="overflow:visible"/>
  </clipPath>
  <path d="M71.5 185.3h-5.8v22.6H35.6v-22.6h-5.8v51.4h5.8v-23.6h30.1v23.6h5.8zM134.7 221H112l11.3-30.9 11.4 30.9zm1.7 4.8 4 10.9h6l-19.2-51.4H119l-18.7 51.4h6.1l4-10.9h26zM225.8 189.7h.2v47h5.8v-51.4h-10.1l-18.2 44-18.2-44h-10.1v51.4h5.8v-47h.2l19.5 47h5.7z" class="st1"/>
  <defs>
    <path id="SVGID_4_" d="M-2742.5-164.5H711.1v3453.6h-3453.6z"/>
  </defs>
  <clipPath id="SVGID_5_">
    <use xlink:href="#SVGID_4_" style="overflow:visible"/>
  </clipPath>
  <path d="M270.2 190.4h17.6c6.1 0 8.8.7 8.8 7.7 0 8-2.4 9.6-9.4 9.6h-16.9v-17.3zm21.5 46.3c8.7 0 12.1-5.1 12.1-14.3 0-6.4-1.1-11.3-8-12.6v-.1c5.4-1.8 6.4-5.4 6.4-10.8 0-9-2.3-13.6-11.9-13.6h-26.1v51.4h27.5zm-21.5-23.8h19.1c7.7-.1 8.7 3.3 8.7 10.1 0 7.9-3.1 8.6-9.4 8.6h-18.4v-18.7z" style="clip-path:url(#SVGID_5_);fill:#fff"/>
  <defs>
    <path id="SVGID_6_" d="M-2742.5-164.5H711.1v3453.6h-3453.6z"/>
  </defs>
  <clipPath id="SVGID_7_">
    <use xlink:href="#SVGID_6_" style="overflow:visible"/>
  </clipPath>
  <path d="M371.1 185.3v37c0 9.6-4.2 9.7-14.5 9.7-12.6 0-14.5-1.3-14.5-9.7v-37h-5.8v37c0 14.5 9.1 14.8 20.4 14.8 12.1 0 20.4-1 20.4-14.8v-37h-6z" style="clip-path:url(#SVGID_7_);fill:#fff"/>
  <defs>
    <path id="SVGID_8_" d="M-2742.5-164.5H711.1v3453.6h-3453.6z"/>
  </defs>
  <clipPath id="SVGID_9_">
    <use xlink:href="#SVGID_8_" style="overflow:visible"/>
  </clipPath>
  <path d="M415.9 211v-20.6h18c9.2 0 10.1 2.5 10.1 9.1 0 8.5-1.1 11.2-10.1 11.5h-18zm0 5.2h18.7c7.1 0 8.6 3.2 8.6 9.7v10.9h5.8v-13.7c0-5.6-2.5-8.8-8.3-9.3v-.1c8.2-1 9-6.4 9-13.6 0-11.7-4.9-14.8-16-14.8H410v51.4h5.8v-20.5z" style="clip-path:url(#SVGID_9_);fill:#fff"/>
  <defs>
    <path id="SVGID_10_" d="M-2742.5-164.5H711.1v3453.6h-3453.6z"/>
  </defs>
  <clipPath id="SVGID_11_">
    <use xlink:href="#SVGID_10_" style="overflow:visible"/>
  </clipPath>
  <path d="M500.3 211v5.1h16.4v6.4c0 8.2-2.2 9.5-12.4 9.5h-5.5c-9.6 0-12.9-2.2-12.9-12v-16.5c0-11.3 1.6-13.4 12.8-13.4h7.2c8.4 0 10.7 1.4 10.7 7.3v3h5.8v-4c0-8.3-6-11.5-13.7-11.5h-13.5c-8.8 0-15.1 4-15.1 17.9v15.9c0 15.9 6 18.4 19.8 18.4h5.6c11.7 0 17.1-2.9 17.1-15V211h-22.3z" style="clip-path:url(#SVGID_11_);fill:#fff"/>
  <path d="M83.3 118.9h.4l-.9 46.4h10.5v-55.1H76.1l-14.5 40.9h-.3l-14.8-40.9H29.7v55.1h10.4l-.8-46.2h.2l17.3 46.2h9.4z" class="st1"/>
  <defs>
    <path id="SVGID_12_" d="M-2742.5-164.5H711.1v3453.6h-3453.6z"/>
  </defs>
  <clipPath id="SVGID_13_">
    <use xlink:href="#SVGID_12_" style="overflow:visible"/>
  </clipPath>
  <path d="M118.3 133.3c8.1 0 8.8 2.3 8.8 12.8 0 10.3-.7 12.6-8.8 12.6-8.1 0-8.8-2.3-8.8-12.6 0-10.4.7-12.8 8.8-12.8m0-7c-15.9 0-18 4.8-18 19.7 0 14.9 2 19.7 18 19.7 15.9 0 18-4.8 18-19.7-.1-15-2.1-19.7-18-19.7" style="clip-path:url(#SVGID_13_);fill:#fff"/>
  <defs>
    <path id="SVGID_14_" d="M-2742.5-164.5H711.1v3453.6h-3453.6z"/>
  </defs>
  <clipPath id="SVGID_15_">
    <use xlink:href="#SVGID_14_" style="overflow:visible"/>
  </clipPath>
  <path d="M167.9 165.3h9.2v-55.1h-9.2v21.7h-.4c-2-4.7-6.8-5.6-11.5-5.6-13.1 0-14.6 7.3-14.6 18.6 0 11.8.4 20.9 14.6 20.9 5.4 0 9.6-1.2 11.9-6.2h.3l-.3 5.7zm-9.1-32c7.9 0 9 3.3 9 11.5 0 9.2.4 13.8-9 13.8-8.4 0-8.1-5.1-8.1-13.8-.1-9.6 1.8-11.5 8.1-11.5" style="clip-path:url(#SVGID_15_);fill:#fff"/>
  <defs>
    <path id="SVGID_16_" d="M-2742.5-164.5H711.1v3453.6h-3453.6z"/>
  </defs>
  <clipPath id="SVGID_17_">
    <use xlink:href="#SVGID_16_" style="overflow:visible"/>
  </clipPath>
  <path d="M192.9 141.8c0-6.8.5-8.5 8.4-8.5 7.5 0 8.7.6 8.7 8.5h-17.1zm17 11.2c0 5.7-3.6 5.7-8.7 5.7-8.2 0-8.4-2.6-8.4-10.9H219c0-16.8-2.1-21.4-17.8-21.4-15.4 0-17.6 6-17.6 19.8 0 14.9 3 19.6 17.6 19.6 10.9 0 17.8-.6 17.8-12.7h-9.1z" style="clip-path:url(#SVGID_17_);fill:#fff"/>
  <defs>
    <path id="SVGID_18_" d="M-2742.5-164.5H711.1v3453.6h-3453.6z"/>
  </defs>
  <clipPath id="SVGID_19_">
    <use xlink:href="#SVGID_18_" style="overflow:visible"/>
  </clipPath>
  <path d="M268.7 128.6v-3c-.7-15.8-8.5-15.9-22.1-15.9-16.1 0-22.8 4-22.8 21.6V144c.2 16.1 3.6 22.5 22.8 21.7 13.5-.6 22.9 0 22.7-16.6v-3.6h-10.5v3c0 7.9-3.8 8.2-12.2 8.2-11 0-12.3-2.1-12.4-13.1v-12.2c0-10.8 1.8-12.5 12.4-12.5 9.2 0 11.6.4 11.6 6.8v3h10.5z" style="clip-path:url(#SVGID_19_);fill:#fff"/>
  <defs>
    <path id="SVGID_20_" d="M-2742.5-164.5H711.1v3453.6h-3453.6z"/>
  </defs>
  <clipPath id="SVGID_21_">
    <use xlink:href="#SVGID_20_" style="overflow:visible"/>
  </clipPath>
  <path d="M283 141.8c0-6.8.5-8.5 8.4-8.5 7.5 0 8.7.6 8.7 8.5H283zm17.1 11.2c0 5.7-3.6 5.7-8.7 5.7-8.2 0-8.4-2.6-8.4-10.9h26.2c0-16.8-2.1-21.4-17.8-21.4-15.4 0-17.6 6-17.6 19.8 0 14.9 3 19.6 17.6 19.6 10.9 0 17.8-.6 17.8-12.7h-9.1z" style="clip-path:url(#SVGID_21_);fill:#fff"/>
  <defs>
    <path id="SVGID_22_" d="M-2742.5-164.5H711.1v3453.6h-3453.6z"/>
  </defs>
  <clipPath id="SVGID_23_">
    <use xlink:href="#SVGID_22_" style="overflow:visible"/>
  </clipPath>
  <path d="M315.8 126.7v38.6h9.2V144c0-6.9 1.1-10.7 9.1-10.7 5.9 0 7.1 1.9 7.1 7.5v24.5h9.2v-25.4c0-9.4-3.1-13.6-13.1-13.6-5.4 0-10 .6-12 6.2h-.3v-5.8h-9.2z" style="clip-path:url(#SVGID_23_);fill:#fff"/>
  <defs>
    <path id="SVGID_24_" d="M-2742.5-164.5H711.1v3453.6h-3453.6z"/>
  </defs>
  <clipPath id="SVGID_25_">
    <use xlink:href="#SVGID_24_" style="overflow:visible"/>
  </clipPath>
  <path d="M353.6 133.8h4.8v19.8c0 9.8 3.1 12.1 13.1 12.1 9.9 0 12.8-3.5 12.6-15.2H376c0 4 .6 8.2-4.6 8.2-3.8 0-3.8-1.6-3.9-5.1v-19.8h14.6v-7h-14.6V118h-9.2v8.7h-4.8v7.1z" style="clip-path:url(#SVGID_25_);fill:#fff"/>
  <defs>
    <path id="SVGID_26_" d="M-2742.5-164.5H711.1v3453.6h-3453.6z"/>
  </defs>
  <clipPath id="SVGID_27_">
    <use xlink:href="#SVGID_26_" style="overflow:visible"/>
  </clipPath>
  <path d="M387.6 126.7v38.6h9.2v-23.8c-.1-5 1.5-8.2 6.9-8.2 4.3 0 4.7 2.3 4.7 6.2v2h8.6v-3.1c0-7.3-2-12.1-10-12.1-4.4 0-8.4 1.2-10.2 5.5h-.4l.2-5.1h-9z" style="clip-path:url(#SVGID_27_);fill:#fff"/>
  <defs>
    <path id="SVGID_28_" d="M-2742.5-164.5H711.1v3453.6h-3453.6z"/>
  </defs>
  <clipPath id="SVGID_29_">
    <use xlink:href="#SVGID_28_" style="overflow:visible"/>
  </clipPath>
  <path d="M456.1 165.3v-38.6H447V149c0 6.7-2.3 9.7-9.3 9.7-5.9 0-6.4-2.1-6.4-7.6v-24.3h-9.2v27.9c.1 8.4 5.2 11.1 12.8 11.1 5.2 0 10-1.2 12.1-6.4h.3v5.9h8.8z" style="clip-path:url(#SVGID_29_);fill:#fff"/>
  <defs>
    <path id="SVGID_30_" d="M-2742.5-164.5H711.1v3453.6h-3453.6z"/>
  </defs>
  <clipPath id="SVGID_31_">
    <use xlink:href="#SVGID_30_" style="overflow:visible"/>
  </clipPath>
  <path d="M464.3 126.7v38.6h9.2v-21.7c0-6.8 1.5-10.2 8.9-10.2 5 0 6.2 1.9 6.4 6.8v25.2h9.2v-21.7c0-6.8 1.5-10.2 8.9-10.2 5 0 6.2 1.9 6.4 6.8v25.2h9.2v-26.1c0-9.5-3.3-12.9-13.2-12.9-5.1 0-10.3 1.5-12.1 6.8h-.3c-1-5.6-6.5-6.8-11.3-6.8-4.8 0-10 1.1-12 6h-.3v-5.6h-9z" style="clip-path:url(#SVGID_31_);fill:#fff"/>
</svg>