
<svg version="1.1" id="Ebene_1" xmlns="http://www.w3.org/2000/svg"
    xmlns:xlink="http://www.w3.org/1999/xlink" x="0px" y="0px"
    viewBox="0 0 2522.8 2522.8" style="enable-background:new 0 0 2522.8 2522.8;"
    xml:space="preserve">
<path fill="#95BF46"
        d="M2081.4,502.3c-1.7-12.5-12.7-19.4-21.7-20.2c-9-0.8-200.2-14.9-200.2-14.9s-132.8-131.8-147.3-146.4
	c-14.6-14.6-43.1-10.1-54.1-6.9c-1.6,0.5-29,8.9-74.3,22.9C1539.4,209.3,1461.1,92,1323.4,92c-3.8,0-7.7,0.2-11.6,0.4
	c-39.2-51.8-87.7-74.3-129.6-74.3c-320.8,0-474,401-522.1,604.8c-124.6,38.6-213.2,66.1-224.5,69.6c-69.6,21.8-71.8,24-80.9,89.6
	c-6.9,49.6-188.9,1457.4-188.9,1457.4l1418.5,265.8l768.6-166.3C2352.9,2339,2083.1,514.8,2081.4,502.3L2081.4,502.3z M1505.3,361.1
	l-120,37.1c0-8.5,0.1-16.8,0.1-25.9c0-79.3-11-143.2-28.7-193.8C1427.7,187.5,1474.9,268.2,1505.3,361.1z M1268.7,194.3
	c19.7,49.4,32.6,120.4,32.6,216.1c0,4.9,0,9.4-0.1,13.9c-78.1,24.2-162.9,50.4-247.9,76.8C1101,316.9,1190.5,227.9,1268.7,194.3
	L1268.7,194.3z M1173.4,104.1c13.8,0,27.8,4.7,41.1,13.9c-102.8,48.4-213,170.2-259.5,413.5l-195.9,60.7
	C813.6,406.6,943,104.1,1173.4,104.1L1173.4,104.1z" />
<path fill="#5E8E3E"
        d="M2059.7,482.2c-9-0.8-200.2-14.9-200.2-14.9s-132.8-131.8-147.3-146.4c-5.5-5.4-12.8-8.2-20.5-9.4
	l-107.3,2193.8l768.5-166.2c0,0-269.8-1824.1-271.5-1836.6C2079.7,489.8,2068.7,482.9,2059.7,482.2" />
<path fill="#FFFFFF"
        d="M1323.4,906.8l-94.8,281.9c0,0-83-44.3-184.8-44.3c-149.2,0-156.7,93.6-156.7,117.2
	c0,128.8,335.6,178.1,335.6,479.7c0,237.3-150.5,390.1-353.4,390.1c-243.5,0-368-151.5-368-151.5l65.2-215.4
	c0,0,128,109.9,236,109.9c70.6,0,99.3-55.6,99.3-96.2c0-167.9-275.3-175.4-275.3-451.4c0-232.3,166.7-457,503.2-457
	C1259.4,869.7,1323.4,906.8,1323.4,906.8" />
</svg>