
<?xml version="1.0" encoding="utf-8"?>
<svg version="1.1" id="Ebene_1" xmlns="http://www.w3.org/2000/svg"
    xmlns:xlink="http://www.w3.org/1999/xlink" x="0px" y="0px"
    viewBox="0 0 128.5 128.5" style="enable-background:new 0 0 128.5 128.5;" xml:space="preserve">
<style type="text/css">
	.st0{fill:#189EFF;}
</style>
<g id="XMLID_462_">
	<g id="XMLID_561_">
		<path id="XMLID_563_" class="st0" d="M97,107.2c-4.8-3.6-11.8-6.3-19.3-9.2c-8.9-3.4-19-7.3-26.5-13.4
			c-8.6-6.8-12.7-15.4-12.7-26.3c0-9.8,4-18.1,11.7-24.1c8.6-6.8,21.6-10.3,37.6-10.3c4.4,0,8.7,0.3,12.6,0.8c0.3,0,0.7-0.1,0.8-0.5
			c0.2-0.3,0.1-0.7-0.2-0.9C90.9,14.2,77.9,9.2,64.3,9.2c-14.7,0-28.5,5.7-38.9,16.1C15,35.8,9.2,49.6,9.2,64.3
			c0,14.7,5.7,28.5,16.1,38.9c10.4,10.4,24.2,16.1,38.9,16.1c11.9,0,23.2-3.7,32.7-10.8c0.2-0.2,0.3-0.4,0.3-0.6
			C97.3,107.6,97.2,107.4,97,107.2z"/>
		<path id="XMLID_562_" class="st0" d="M119.1,59.2c0-0.2-0.1-0.4-0.3-0.5C107.3,49.1,98,45.2,86.7,45.2c-6,0-10.6,1.2-13.7,3.6
			c-2.7,2.1-4.1,4.9-4.1,8.3c0,9.5,11.6,13.8,24.9,18.8c6.9,2.6,14,5.2,20.6,8.9c0.1,0.1,0.2,0.1,0.4,0.1c0.1,0,0.2,0,0.3-0.1
			c0.2-0.1,0.4-0.2,0.5-0.5c2.5-6.4,3.8-13.2,3.8-20.1C119.3,62.6,119.2,60.9,119.1,59.2z"/>
	</g>
</g>
</svg>